<svg xmlns="http://www.w3.org/2000/svg" viewBox="0 0 900 1100">
<defs>
 <filter id="grain"><feTurbulence type="fractalNoise" baseFrequency=".7" numOctaves="3" seed="4"/><feColorMatrix values="1 0 0 0 0 0 1 0 0 0 0 0 1 0 0 0 0 0 .12 0"/></filter>
 <filter id="shadow" x="-30%" y="-30%" width="160%" height="180%"><feDropShadow dx="0" dy="28" stdDeviation="22" flood-opacity=".28"/></filter>
 <linearGradient id="shine" x1="0" x2="1"><stop stop-color="#fff" stop-opacity=".12"/><stop offset=".45" stop-color="#fff" stop-opacity="0"/><stop offset="1" stop-color="#000" stop-opacity=".15"/></linearGradient>
</defs>
<rect width="100%" height="100%" fill="#dbd8d0"/>
<g filter="url(#shadow)">
<path d="M278 218 388 155h124l110 63 116 73-84 141-73-45v495H319V387l-73 45-84-141Z" fill="#151515"/>
<path d="M388 155q62 72 124 0" fill="none" stroke="#09090a" stroke-opacity=".55" stroke-width="25"/>
<path d="M278 218q40 66 41 169M622 218q-40 66-41 169" fill="none" stroke="#fff" stroke-opacity=".07" stroke-width="7"/>
<path d="M319 387v495h262V387" fill="url(#shine)" opacity=".8"/>

<circle cx="450" cy="490" r="118" fill="none" stroke="#ccff00" stroke-width="8"/><path d="M350 520 450 350l100 170-100 95Z" fill="none" stroke="#fff" stroke-width="10"/><text x="450" y="690" text-anchor="middle" font-family="Arial Black" font-size="44" fill="#fff">NO LIMITS</text><text x="450" y="725" text-anchor="middle" font-family="Arial" font-size="14" letter-spacing="9" fill="#ccff00">BREAK THE FRAME</text>
</g>
<rect width="100%" height="100%" filter="url(#grain)" opacity=".35"/>
</svg>