<svg xmlns="http://www.w3.org/2000/svg" viewBox="0 0 900 1100">
<defs>
 <filter id="grain"><feTurbulence type="fractalNoise" baseFrequency=".7" numOctaves="3" seed="4"/><feColorMatrix values="1 0 0 0 0 0 1 0 0 0 0 0 1 0 0 0 0 0 .12 0"/></filter>
 <filter id="shadow" x="-30%" y="-30%" width="160%" height="180%"><feDropShadow dx="0" dy="28" stdDeviation="22" flood-opacity=".28"/></filter>
 <linearGradient id="shine" x1="0" x2="1"><stop stop-color="#fff" stop-opacity=".12"/><stop offset=".45" stop-color="#fff" stop-opacity="0"/><stop offset="1" stop-color="#000" stop-opacity=".15"/></linearGradient>
</defs>
<rect width="100%" height="100%" fill="#1b1c1d"/>

<rect width="900" height="1100" fill="#1b1c1d"/>
<path d="M0 870 900 500v600H0Z" fill="#101011"/>
<g opacity=".8"><path d="M-100 350Q230 120 600 390T1050 260" fill="none" stroke="#ccff00" stroke-width="18"/><path d="M-50 440Q280 210 650 480T1100 350" fill="none" stroke="#fff" stroke-opacity=".18" stroke-width="10"/></g>
<g transform="translate(140 110) rotate(8 300 400)" filter="url(#shadow)">
<rect x="30" y="80" width="590" height="760" rx="25" fill="#2a2b2d"/>
<path d="M30 180h590M130 80v760M500 80v760" stroke="#fff" stroke-opacity=".06" stroke-width="7"/>
<text x="325" y="410" text-anchor="middle" font-family="Arial Black" font-size="76" fill="#ccff00">240+</text>
<text x="325" y="463" text-anchor="middle" font-family="Arial" font-size="22" letter-spacing="13" fill="#fff">GSM COTTON</text>
<rect x="170" y="510" width="310" height="6" fill="#ccff00"/>
<text x="325" y="570" text-anchor="middle" font-family="Arial Black" font-size="43" fill="#fff">BUILT TO LAST</text>
</g>
<rect width="100%" height="100%" filter="url(#grain)" opacity=".35"/>
</svg>